<svg width="64" height="64" viewBox="0 0 64 64" fill="none" xmlns="http://www.w3.org/2000/svg">
  <defs>
    <linearGradient id="cyberlincGradient" x1="8" y1="8" x2="56" y2="56" gradientUnits="userSpaceOnUse">
      <stop offset="0" stop-color="#0EA5E9"/>
      <stop offset="1" stop-color="#1D4ED8"/>
    </linearGradient>
  </defs>
  <rect x="4" y="4" width="56" height="56" rx="14" fill="url(#cyberlincGradient)"/>
  <path d="M43.5 22.6C40.8 19.9 37.2 18.5 32.9 18.5C24.6 18.5 18.5 24.5 18.5 32C18.5 39.5 24.6 45.5 32.9 45.5C37.2 45.5 40.8 44.1 43.5 41.4L47.6 45.9C43.8 49.7 38.8 51.7 32.7 51.7C20.5 51.7 11.7 42.9 11.7 32C11.7 21.1 20.5 12.3 32.7 12.3C38.8 12.3 43.8 14.3 47.6 18.1L43.5 22.6Z" fill="#F8FAFC"/>
  <circle cx="48" cy="48" r="4" fill="#93C5FD"/>
</svg>
